<svg width="43" height="38" viewBox="0 0 43 38" fill="none" xmlns="http://www.w3.org/2000/svg">
<path fill-rule="evenodd" clip-rule="evenodd" d="M10.7363 24.4471C8.74791 23.1912 5.74874 28.4709 7.37702 27.2015C6.76491 31.3663 15.457 21.558 17.5075 20.8297C9.17349 19.3301 6.27918 21.4697 17.7755 20.7402C18.4963 20.5054 19.7323 20.103 19.6136 19.3301C19.2709 17.0973 10.4649 19.6505 8.05933 19.9737C6.74806 20.1499 11.6621 18.1197 10.9138 17.8511C3.91601 15.3395 -1.82494 8.71911 1.78822 4.90335C5.11675 1.3881 20.3688 -0.0411139 24.5816 0.661645C26.03 0.903326 28.401 1.66467 29.5957 2.30696C31.815 3.50009 32.5495 4.95395 32.6973 6.55895C32.7923 7.59087 31.9568 8.79683 31.3348 9.6947C31.2535 9.81202 31.1758 9.92409 31.1044 10.0298C29.9552 11.7303 28.536 13.1343 27.1142 14.5408C26.1437 15.5009 25.172 16.4621 24.2843 17.5196C24.3755 17.4478 24.4667 17.376 24.5579 17.3043C27.75 14.7924 30.8727 12.3353 33.1948 8.93375C35.0119 6.27178 35.9519 4.49123 33.2591 2.35738C33.91 2.03277 34.5412 1.7445 35.2738 1.66467C40.3191 1.11536 37.725 7.51326 36.4442 9.66446C36.3584 9.80848 43.1071 16.0779 42.994 16.2408C42.5897 16.8239 35.2588 11.3942 35.4566 12.0393C35.8018 13.1647 37.2291 14.0102 38.6041 14.8248C40.1832 15.7602 41.6933 16.6548 41.416 17.8855C41.0955 19.3082 39.7066 20.5044 38.5857 21.4697C38.4542 21.583 38.3263 21.6931 38.2043 21.8001C36.3218 23.4502 34.3364 24.7781 32.324 26.1242C31.357 26.771 30.3838 27.422 29.4127 28.1148C30.4621 27.7555 31.478 27.3008 32.4916 26.8472C33.5322 26.3814 34.5705 25.9167 35.6401 25.5574C35.611 27.5934 34.6356 28.729 33.5568 29.9849C33.0894 30.5291 32.6025 31.0959 32.1649 31.7684C31.7308 32.4353 31.4008 33.232 31.0706 34.0289C30.1929 36.1472 29.3147 38.2668 26.4822 37.9527C21.8368 37.4377 21.9118 31.483 21.9562 27.9626C21.9596 27.6935 21.9628 27.4386 21.9637 27.2015C21.965 26.8622 12.3309 30.3918 12.1313 29.9849C11.8685 29.4492 21.0398 24.9765 21.2325 24.589C21.5615 23.9274 22.7897 23.3346 23.852 22.8218C24.39 22.5621 24.8856 22.3229 25.2001 22.1057C27.5553 20.4797 29.3036 18.4616 31.0612 16.2408C30.403 16.7149 29.7481 17.1977 29.0925 17.681C24.8277 20.8248 20.5334 23.9905 15.1264 24.9193C13.7877 25.1493 11.9226 25.1964 10.7363 24.4471ZM8.05933 11.9181C8.21392 7.13858 11.5838 -1.53233 23.8268 2.01991C19.2512 1.27986 9.69173 2.22342 8.05933 11.9181Z" fill="url(#paint0_linear_3_625)"/>
<defs>
<linearGradient id="paint0_linear_3_625" x1="42.4453" y1="1.3945" x2="-4.05019" y2="16.8621" gradientUnits="userSpaceOnUse">
<stop stop-color="#FFC000"/>
<stop offset="1" stop-color="#FF8A00"/>
</linearGradient>
</defs>
</svg>
