<svg width="498" height="70" viewBox="0 0 498 70" fill="none" xmlns="http://www.w3.org/2000/svg">
<path d="M77.2408 61.3963L77.9353 59.6562L78.1669 59.0758L78.3982 58.4964C76.8135 57.8639 76.0442 56.0478 76.6824 54.4487C77.3206 52.8496 79.1286 52.0631 80.7133 52.6956L80.9449 52.1153L81.1763 51.5353L81.8708 49.7952L80.5142 39.8395L73.2665 39.637L73.0271 43.5761L59.8089 38.3008L53.3269 54.5424L66.5451 59.8178L64.0066 62.8393L69.4024 67.6818L77.2408 61.3963ZM65.7322 62.7104L67.4891 60.6201L68.6031 59.2936L67.0082 58.6571L54.94 53.8407L60.4959 39.9195L72.5641 44.7359L74.159 45.3724L74.2641 43.6443L74.4296 40.9178L79.4285 41.0575L80.5984 49.6444L79.9595 51.2453C78.0985 51.0813 76.2669 52.1508 75.5329 53.99C74.7987 55.8295 75.3906 57.8664 76.8533 59.0283L76.2144 60.6291L69.4535 66.0513L65.7322 62.7104Z" fill="url(#paint0_linear_31_3)" style="mix-blend-mode:multiply"/>
<path d="M67.61 49.7599L69.7977 49.3963L66.4782 44.9972L65.5963 47.2068L64.3616 50.3005L62.7741 54.2783L70.3147 53.1881L67.61 49.7599ZM66.8095 47.5048L67.5641 48.5044L66.7289 48.6433L66.4808 48.3286L66.8096 47.5049L66.8095 47.5048ZM65.9475 49.6647L67.9985 52.2636L64.7211 52.7376L65.9475 49.6647Z" fill="url(#paint1_linear_31_3)" style="mix-blend-mode:multiply"/>
<g clip-path="url(#clip0_31_3)">
<path d="M27.4204 60.0587L18.6937 51.0084L25.3069 44.1498C26.6253 42.783 26.6253 40.5669 25.3069 39.2001C24.6477 38.5165 23.7842 38.1747 22.9207 38.1747C22.0572 38.1747 21.1928 38.5165 20.5336 39.2001L13.9204 46.0587L5.19371 37.0084L0.42041 41.958L9.14711 51.0084L1.54513 58.8919V63.842H6.31843L13.9204 55.958L22.6471 65.0084L27.4204 60.0587ZM17.8977 50.1833L16.7079 48.9495L21.7309 43.7409L22.9207 44.9748L17.8977 50.1833ZM21.3296 40.0247C21.7547 39.5842 22.3192 39.3415 22.9207 39.3415C23.5214 39.3415 24.0866 39.5842 24.5118 40.0247C25.3885 40.9348 25.3885 42.4151 24.5118 43.3248L23.7158 44.1498L20.5336 40.8497L21.3296 40.0247ZM19.7385 41.6747L20.9349 42.9159L15.9128 48.1244L14.7156 46.8837L19.7385 41.6747ZM5.19371 38.6584L6.76093 40.2836L5.96495 41.1087C5.74579 41.3364 5.74579 41.706 5.96495 41.9337C6.18496 42.1614 6.54092 42.1614 6.76093 41.9337C6.76093 41.9337 6.76093 41.9332 6.76177 41.9328L7.55606 41.1087L9.14716 42.7587L8.35203 43.5837C8.13202 43.8114 8.13202 44.181 8.35203 44.4087C8.57119 44.6364 8.92799 44.6364 9.14716 44.4087C9.14716 44.4083 9.14716 44.4083 9.14716 44.4083L9.94313 43.5837L11.5342 45.2337L10.7391 46.0579C10.7391 46.0579 10.7383 46.0583 10.7383 46.0588C10.5191 46.2865 10.5191 46.6556 10.7383 46.8833C10.9583 47.1115 11.3142 47.1115 11.5342 46.8833V46.8838L12.3294 46.0588L13.9204 47.7083L13.1253 48.5333C12.9053 48.7615 12.9053 49.1306 13.1253 49.3583C13.3444 49.586 13.7004 49.586 13.9204 49.3583L14.7155 48.5333L16.3066 50.1833L15.5115 51.0084C15.2915 51.2361 15.2915 51.6057 15.5115 51.8334C15.7307 52.0611 16.0875 52.0611 16.3066 51.8334C16.3075 51.8329 16.3075 51.8329 16.3075 51.8329L17.1026 51.0084L18.6937 52.6584L17.8977 53.483V53.4834C17.6786 53.7111 17.6786 54.0803 17.8977 54.3084C18.1178 54.5361 18.4737 54.5361 18.6937 54.3084L19.4888 53.4834L21.0799 55.1334L20.2848 55.958C20.0648 56.1862 20.0648 56.5553 20.2848 56.783C20.504 57.0107 20.8599 57.0112 21.0799 56.783C21.0799 56.783 21.0799 56.783 21.0799 56.7826L21.8751 55.958L23.4662 57.608L22.6719 58.4326L22.671 58.4331C22.451 58.6608 22.451 59.0304 22.671 59.2581C22.8911 59.4858 23.247 59.4858 23.4662 59.2581L24.2621 58.4331L25.8294 60.0588L22.6472 63.3584L2.01151 41.958L5.19371 38.6584ZM2.66985 62.6752V61.7087L3.60261 62.6752H2.66985ZM5.85205 62.6752H5.19287L2.66985 60.0587V59.3755L9.94308 51.8334L11.1395 53.0745L5.52657 58.8958C5.30657 59.1235 5.30657 59.4931 5.52657 59.7208C5.74574 59.9485 6.1017 59.9485 6.3217 59.7208L11.9354 53.8996L13.1252 55.1331L5.85205 62.6752Z" fill="white"/>
</g>
<g clip-path="url(#clip1_31_3)">
<path d="M346.559 38.7847L394.453 52.3549L397.368 42.0706L349.473 28.4996L346.559 38.7847ZM393.225 50.1561L389.847 49.1982L390.334 47.4842C390.467 47.0108 390.192 46.5186 389.719 46.3837C389.246 46.2505 388.754 46.5253 388.619 46.9982C388.619 46.9994 388.619 46.9994 388.619 46.9994L388.134 48.7127L384.705 47.7413L385.191 46.028C385.325 45.5539 385.05 45.0617 384.576 44.9274C384.104 44.7936 383.61 45.0679 383.477 45.5414L382.991 47.2562L379.563 46.2848L380.048 44.5703L380.048 44.5699C380.183 44.0974 379.907 43.604 379.434 43.4705C378.96 43.3362 378.468 43.6111 378.334 44.0848C378.334 44.0851 378.334 44.0851 378.334 44.0851L377.848 45.7985L374.42 44.827L374.906 43.1133C375.04 42.6396 374.765 42.1474 374.291 42.0128C373.819 41.8793 373.326 42.1545 373.191 42.627L372.706 44.3419L369.278 43.3704L369.764 41.6568C369.898 41.1827 369.623 40.6909 369.149 40.5562C368.676 40.4216 368.183 40.6964 368.049 41.1705L367.564 42.8853L364.136 41.9136L364.621 40.1987C364.756 39.7262 364.48 39.2328 364.007 39.0993C363.533 38.965 363.041 39.2399 362.907 39.7136C362.907 39.7139 362.907 39.7139 362.907 39.7139L362.421 41.4273L358.993 40.4558L359.479 38.7422C359.613 38.2684 359.338 37.7763 358.864 37.6416C358.391 37.5081 357.899 37.7833 357.764 38.2559C357.764 38.2559 357.764 38.2559 357.765 38.2571L357.279 39.9707L353.85 38.9993L354.335 37.2863C354.336 37.286 354.336 37.2856 354.336 37.2856C354.47 36.8119 354.195 36.3197 353.722 36.1851C353.248 36.0504 352.756 36.3256 352.622 36.7993L352.136 38.513L348.759 37.5562L350.701 30.6995L395.168 43.2992L393.225 50.1561Z" fill="url(#paint2_linear_31_3)" style="mix-blend-mode:multiply"/>
</g>
<path d="M152.511 29.627L148.711 25.6265L144.385 38.6358L150.122 37.3563L158.155 35.5647L168.48 33.2618L155.718 19.2462L152.511 29.627ZM147.246 36.0527L149.515 29.2293L151.868 31.7069L150.769 35.267L147.246 36.0527ZM152.903 34.7908L156.551 22.9815L164.874 32.1209L152.903 34.7908Z" fill="white"/>
<path d="M162.085 4.59246L161.663 2.69939C161.546 2.17671 161.038 1.84552 160.526 1.95965C160.013 2.0741 159.693 2.59 159.81 3.11269L160.232 5.00575L156.524 5.83265L156.102 3.93958C155.986 3.4169 155.477 3.08571 154.965 3.19984C154.452 3.31429 154.133 3.8302 154.249 4.35288L154.671 6.24594L150.965 7.07269L150.542 5.17962C150.426 4.65694 149.917 4.32588 149.405 4.44004C148.892 4.55433 148.572 5.07039 148.689 5.59307L149.111 7.48614L145.404 8.31288L144.982 6.41981C144.865 5.89713 144.356 5.56607 143.844 5.68023C143.332 5.79452 143.012 6.31058 143.128 6.83326L143.551 8.72633L139.844 9.55307L139.422 7.66C139.305 7.13732 138.796 6.80626 138.284 6.92042C137.772 7.03471 137.451 7.55077 137.568 8.07345L137.99 9.96652L132.43 11.2067L141.718 52.8516L176.934 44.9972L167.645 3.35227L162.085 4.59246ZM174.667 43.5561L143.158 50.5838L134.697 12.647L138.404 11.8202L138.808 13.6339C138.925 14.1566 139.434 14.4882 139.946 14.3739C140.458 14.2598 140.778 13.743 140.662 13.2204L140.257 11.4068L143.964 10.58L144.368 12.3937C144.485 12.9164 144.994 13.248 145.507 13.1337C146.019 13.0196 146.339 12.5028 146.222 11.9802L145.818 10.1666L149.524 9.33985L149.929 11.1535C150.046 11.6762 150.555 12.0079 151.067 11.8935C151.579 11.7794 151.899 11.2627 151.783 10.7401L151.378 8.9264L155.085 8.09966L155.489 9.91331C155.606 10.436 156.115 10.7678 156.628 10.6534C157.14 10.5392 157.459 10.0226 157.342 9.50002L156.938 7.68636L160.645 6.85946L161.05 8.67312C161.166 9.1958 161.675 9.52761 162.188 9.41316C162.7 9.299 163.019 8.78242 162.903 8.25983L162.498 6.44617L166.206 5.61927L174.667 43.5561Z" fill="white"/>
<path d="M478.754 23.8085L456.017 43.8137C455.744 44.0539 455.718 44.47 455.958 44.743L469.874 60.5599C470.115 60.8328 470.531 60.8591 470.804 60.6189L479.007 53.4012L481.025 56.8873L480.827 57.0612C480.554 57.3014 480.527 57.7179 480.768 57.9908C481.008 58.2638 481.424 58.29 481.697 58.0498L489.606 51.0913C489.879 50.8512 489.905 50.4357 489.665 50.1627C489.424 49.8898 489.009 49.8625 488.736 50.1027L488.538 50.2766L485.336 47.8327L493.54 40.6137C493.813 40.3735 493.84 39.9581 493.599 39.6851L479.683 23.8682C479.443 23.5952 479.027 23.5684 478.754 23.8085ZM482.033 56.0005L480.018 52.519L484.331 48.7218L487.53 51.1634L482.033 56.0005L482.033 56.0005ZM483.478 30.1749L480.513 32.7842L476.164 27.8416L479.13 25.2323L483.478 30.1749ZM481.383 33.7729L484.348 31.1636L490.437 38.0831L487.471 40.6925L481.383 33.7729ZM475.176 28.7112L486.483 41.562L468.689 57.2181L457.382 44.3673L475.176 28.7112ZM481.302 49.6283L470.429 59.1955L469.559 58.2068L480.432 48.6396L491.307 39.0718L492.176 40.0605L481.302 49.6283Z" fill="url(#paint3_linear_31_3)" style="mix-blend-mode:multiply"/>
<path d="M481.361 48.699C481.12 48.426 480.705 48.3991 480.431 48.6399C480.158 48.8801 480.132 49.2956 480.372 49.5685C480.612 49.8415 481.028 49.8687 481.301 49.6286C481.575 49.3878 481.601 48.9719 481.361 48.699Z" fill="url(#paint4_linear_31_3)" style="mix-blend-mode:multiply"/>
<path d="M474.663 44.9293L478.052 41.9473L470.4 39.3257L471.333 43.8672L469.089 43.1515L470.143 48.9058L472.027 47.2488L474.663 44.9293ZM472.153 41.3182L475.478 42.4576L472.86 44.7612L472.153 41.3182ZM471.02 46.3805L470.78 45.073L471.636 45.3461L471.721 45.7632L471.02 46.3805Z" fill="url(#paint5_linear_31_3)" style="mix-blend-mode:multiply"/>
<path d="M463.074 42.8648L462.086 43.7344L462.956 44.723L463.944 43.8535L463.074 42.8648Z" fill="url(#paint6_linear_31_3)" style="mix-blend-mode:multiply"/>
<path d="M468.51 38.0817L467.522 38.9512L468.392 39.9399L469.38 39.0703L468.51 38.0817Z" fill="url(#paint7_linear_31_3)" style="mix-blend-mode:multiply"/>
<path d="M473.948 33.2979L472.958 34.1681L473.828 35.1568L474.817 34.2865L473.948 33.2979Z" fill="url(#paint8_linear_31_3)" style="mix-blend-mode:multiply"/>
<path d="M477.427 37.2519L476.438 38.1221L477.308 39.1104L478.297 38.2402L477.427 37.2519Z" fill="url(#paint9_linear_31_3)" style="mix-blend-mode:multiply"/>
<path d="M480.907 41.206L479.918 42.0762L480.788 43.0648L481.777 42.1946L480.907 41.206Z" fill="url(#paint10_linear_31_3)" style="mix-blend-mode:multiply"/>
<path d="M470.034 50.7734L469.046 51.6429L469.916 52.6316L470.904 51.762L470.034 50.7734Z" fill="url(#paint11_linear_31_3)" style="mix-blend-mode:multiply"/>
<path d="M466.554 46.8193L465.566 47.6889L466.435 48.6772L467.424 47.8076L466.554 46.8193Z" fill="url(#paint12_linear_31_3)" style="mix-blend-mode:multiply"/>
<path d="M475.47 45.9902L474.482 46.8598L475.352 47.8485L476.34 46.9789L475.47 45.9902Z" fill="url(#paint13_linear_31_3)" style="mix-blend-mode:multiply"/>
<defs>
<linearGradient id="paint0_linear_31_3" x1="73.5885" y1="68.9329" x2="74.8575" y2="34.5061" gradientUnits="userSpaceOnUse">
<stop stop-color="#FFC000"/>
<stop offset="1" stop-color="#FF8A00"/>
</linearGradient>
<linearGradient id="paint1_linear_31_3" x1="68.8033" y1="56.5446" x2="68.3575" y2="45.4187" gradientUnits="userSpaceOnUse">
<stop stop-color="#FFC000"/>
<stop offset="1" stop-color="#FF8A00"/>
</linearGradient>
<linearGradient id="paint2_linear_31_3" x1="344.047" y1="32.166" x2="379.805" y2="67.1796" gradientUnits="userSpaceOnUse">
<stop stop-color="#FFC000"/>
<stop offset="1" stop-color="#FF8A00"/>
</linearGradient>
<linearGradient id="paint3_linear_31_3" x1="479.381" y1="24.1475" x2="461.087" y2="55.7815" gradientUnits="userSpaceOnUse">
<stop stop-color="#FFC000"/>
<stop offset="1" stop-color="#FF8A00"/>
</linearGradient>
<linearGradient id="paint4_linear_31_3" x1="480.934" y1="48.24" x2="480.112" y2="49.5433" gradientUnits="userSpaceOnUse">
<stop stop-color="#FFC000"/>
<stop offset="1" stop-color="#FF8A00"/>
</linearGradient>
<linearGradient id="paint5_linear_31_3" x1="473.422" y1="36.8928" x2="468.49" y2="47.5643" gradientUnits="userSpaceOnUse">
<stop stop-color="#FFC000"/>
<stop offset="1" stop-color="#FF8A00"/>
</linearGradient>
<linearGradient id="paint6_linear_31_3" x1="463.082" y1="42.9" x2="462.26" y2="44.2032" gradientUnits="userSpaceOnUse">
<stop stop-color="#FFC000"/>
<stop offset="1" stop-color="#FF8A00"/>
</linearGradient>
<linearGradient id="paint7_linear_31_3" x1="468.518" y1="38.1169" x2="467.696" y2="39.4201" gradientUnits="userSpaceOnUse">
<stop stop-color="#FFC000"/>
<stop offset="1" stop-color="#FF8A00"/>
</linearGradient>
<linearGradient id="paint8_linear_31_3" x1="473.956" y1="33.3331" x2="473.133" y2="34.6374" gradientUnits="userSpaceOnUse">
<stop stop-color="#FFC000"/>
<stop offset="1" stop-color="#FF8A00"/>
</linearGradient>
<linearGradient id="paint9_linear_31_3" x1="477.435" y1="37.2871" x2="476.613" y2="38.5915" gradientUnits="userSpaceOnUse">
<stop stop-color="#FFC000"/>
<stop offset="1" stop-color="#FF8A00"/>
</linearGradient>
<linearGradient id="paint10_linear_31_3" x1="480.915" y1="41.2412" x2="480.093" y2="42.5455" gradientUnits="userSpaceOnUse">
<stop stop-color="#FFC000"/>
<stop offset="1" stop-color="#FF8A00"/>
</linearGradient>
<linearGradient id="paint11_linear_31_3" x1="470.042" y1="50.8086" x2="469.22" y2="52.1118" gradientUnits="userSpaceOnUse">
<stop stop-color="#FFC000"/>
<stop offset="1" stop-color="#FF8A00"/>
</linearGradient>
<linearGradient id="paint12_linear_31_3" x1="466.562" y1="46.8545" x2="465.741" y2="48.1578" gradientUnits="userSpaceOnUse">
<stop stop-color="#FFC000"/>
<stop offset="1" stop-color="#FF8A00"/>
</linearGradient>
<linearGradient id="paint13_linear_31_3" x1="475.478" y1="46.0254" x2="474.656" y2="47.3287" gradientUnits="userSpaceOnUse">
<stop stop-color="#FFC000"/>
<stop offset="1" stop-color="#FF8A00"/>
</linearGradient>
<clipPath id="clip0_31_3">
<rect width="27" height="28" fill="white" transform="translate(0.42041 37.0084)"/>
</clipPath>
<clipPath id="clip1_31_3">
<rect width="42.7584" height="42.7584" fill="white" transform="translate(363.721 69.5167) rotate(-119.18)"/>
</clipPath>
</defs>
</svg>
