<?xml version="1.0" encoding="utf-8"?><svg viewBox="0 0 43 38" xmlns="http://www.w3.org/2000/svg" xmlns:xlink="http://www.w3.org/1999/xlink"><style>:root>svg{display:none}:root>svg:target{display:block}</style><svg viewBox="0 0 30 30" id="Instagram" xmlns="http://www.w3.org/2000/svg"><path fill-rule="evenodd" clip-rule="evenodd" d="M15 0C6.716 0 0 6.716 0 15c0 8.284 6.716 15 15 15 8.284 0 15-6.716 15-15 0-8.284-6.716-15-15-15zm-3.298 7.048C12.555 7.01 12.828 7 15.001 7h-.003c2.174 0 2.445.01 3.299.048.851.04 1.433.174 1.943.372.527.204.972.478 1.417.923.445.444.718.89.923 1.417.197.508.332 1.09.372 1.941.038.854.048 1.126.048 3.3 0 2.172-.01 2.444-.048 3.297-.04.852-.175 1.433-.372 1.942a3.927 3.927 0 01-.923 1.417c-.445.445-.89.719-1.416.923-.51.198-1.091.333-1.943.372-.854.039-1.125.048-3.298.048s-2.445-.01-3.299-.048c-.851-.04-1.433-.174-1.942-.372a3.918 3.918 0 01-1.416-.923 3.92 3.92 0 01-.923-1.417c-.198-.509-.332-1.09-.372-1.942C7.01 17.445 7 17.173 7 15s.01-2.445.048-3.299c.038-.851.173-1.433.372-1.941a3.92 3.92 0 01.923-1.417A3.918 3.918 0 019.76 7.42c.509-.198 1.09-.333 1.942-.372z"/><path fill-rule="evenodd" clip-rule="evenodd" d="M14.283 8.442h.718c2.136 0 2.389.007 3.232.046.78.035 1.204.166 1.486.275.373.145.64.319.92.599.28.28.453.546.598.92.11.281.24.705.275 1.485.039.843.047 1.096.047 3.231s-.008 2.389-.047 3.232c-.035.78-.166 1.203-.275 1.485a2.47 2.47 0 01-.599.919c-.28.28-.546.453-.92.598-.28.11-.704.24-1.485.276-.843.038-1.096.047-3.232.047s-2.39-.009-3.233-.047c-.78-.036-1.203-.166-1.485-.276a2.478 2.478 0 01-.92-.598 2.48 2.48 0 01-.6-.92c-.109-.281-.24-.705-.275-1.485-.038-.843-.046-1.096-.046-3.233 0-2.136.008-2.388.046-3.231.036-.78.166-1.204.276-1.486.145-.373.319-.64.599-.92.28-.28.546-.453.92-.598.282-.11.705-.24 1.485-.276.738-.034 1.024-.044 2.515-.045v.002zm4.988 1.328a.96.96 0 100 1.92.96.96 0 000-1.92zM10.893 15a4.109 4.109 0 118.217 0 4.109 4.109 0 01-8.217 0z"/><path fill-rule="evenodd" clip-rule="evenodd" d="M15 12.334a2.667 2.667 0 110 5.333 2.667 2.667 0 010-5.334z"/></svg><svg viewBox="0 0 30 30" id="facebook" xmlns="http://www.w3.org/2000/svg"><path fill-rule="evenodd" clip-rule="evenodd" d="M15 0C6.716 0 0 6.716 0 15c0 8.284 6.716 15 15 15 8.284 0 15-6.716 15-15 0-8.284-6.716-15-15-15zm1.564 15.659v8.16h-3.377v-8.16H11.5v-2.812h1.687v-1.688c0-2.295.953-3.659 3.659-3.659h2.253v2.813H17.69c-1.053 0-1.123.393-1.123 1.126l-.003 1.408h2.55l-.298 2.812h-2.252z"/></svg><svg viewBox="0 0 43 38" id="logo" xmlns="http://www.w3.org/2000/svg"><path fill-rule="evenodd" clip-rule="evenodd" d="M10.736 24.447c-1.988-1.256-4.987 4.024-3.359 2.755-.612 4.164 8.08-5.644 10.13-6.372-8.334-1.5-11.228.64.268-.09.721-.235 1.957-.637 1.839-1.41-.343-2.233-9.15.32-11.555.644-1.31.176 3.603-1.854 2.855-2.123C3.916 15.34-1.825 8.72 1.788 4.903 5.117 1.388 20.368-.04 24.582.662c1.448.241 3.819 1.003 5.014 1.645 2.219 1.193 2.954 2.647 3.101 4.252.095 1.032-.74 2.238-1.362 3.136-.082.117-.16.23-.23.335-1.15 1.7-2.569 3.104-3.99 4.51-.971.96-1.943 1.922-2.83 2.98l.273-.216c3.192-2.512 6.315-4.969 8.637-8.37 1.817-2.662 2.757-4.443.064-6.577.651-.324 1.282-.613 2.015-.692 5.045-.55 2.451 5.848 1.17 8-.086.143 6.663 6.413 6.55 6.576-.404.583-7.735-4.847-7.537-4.202.345 1.126 1.772 1.971 3.147 2.786 1.58.935 3.09 1.83 2.812 3.06-.32 1.423-1.71 2.62-2.83 3.585-.132.113-.26.223-.382.33-1.882 1.65-3.868 2.978-5.88 4.324-.967.647-1.94 1.298-2.911 1.99 1.05-.358 2.065-.813 3.079-1.267 1.04-.466 2.079-.93 3.148-1.29-.029 2.036-1.004 3.172-2.083 4.428-.468.544-.955 1.11-1.392 1.783-.434.667-.764 1.464-1.094 2.26-.878 2.12-1.756 4.239-4.589 3.925-4.645-.515-4.57-6.47-4.526-9.99.004-.27.007-.524.008-.762.001-.339-9.633 3.19-9.833 2.784-.263-.536 8.909-5.008 9.102-5.396.328-.662 1.557-1.254 2.619-1.767.538-.26 1.034-.5 1.348-.716 2.355-1.626 4.104-3.644 5.861-5.865-.658.474-1.313.957-1.968 1.44-4.265 3.144-8.56 6.31-13.967 7.238-1.338.23-3.203.277-4.39-.472zM8.06 11.918c.155-4.78 3.525-13.45 15.768-9.898-4.576-.74-14.135.203-15.768 9.898z"/><defs><linearGradient id="ca" x1="42.445" y1="1.395" x2="-4.05" y2="16.862" gradientUnits="userSpaceOnUse"><stop stop-color="#FFC000"/><stop offset="1" stop-color="#FF8A00"/></linearGradient></defs></svg><svg viewBox="0 0 26 26" id="tooltip-icon" xmlns="http://www.w3.org/2000/svg"><circle cx="13" cy="13" r="8"/></svg></svg>